<svg xmlns="http://www.w3.org/2000/svg" viewBox="0 0 174.88 210"><title>Asset 15@4</title><g id="Layer_2" data-name="Layer 2"><g id="Layer_1-2" data-name="Layer 1"><path d="M108.26,0H25A25,25,0,0,0,0,25V169.9a25,25,0,0,0,25,25H56.85a5.31,5.31,0,0,1,3.77-9.05h55.93a7.32,7.32,0,0,0,7.32-7.32V21.26l9.32,1.93A25,25,0,0,0,108.26,0Zm15,169.9a15,15,0,0,1-15,15H25a15,15,0,0,1-15-15V25A15,15,0,0,1,25,10h83.26a15,15,0,0,1,15,15Z"/><path d="M102.9,124.75,75.34,63.68l-4-8.79a4.33,4.33,0,0,0-3.32-2.34,5.58,5.58,0,0,0-1.68-.05,4.76,4.76,0,0,0-3.66,2.44,3.89,3.89,0,0,0-.25.55L35.18,116l-4,8.78c-1.11,2.46-.71,5.38,1.79,6.84,2.14,1.26,5.73.68,6.84-1.79l10-22.23H84.23L90.3,121l4,8.78c1.11,2.46,4.69,3.06,6.84,1.79C103.64,130.11,104,127.22,102.9,124.75ZM54.39,97.57q6.35-14,12.67-28.07L79.72,97.57Z"/><path d="M66.38,52.5a4.76,4.76,0,0,0-3.66,2.44s0,0,0-.05A4.4,4.4,0,0,1,66.38,52.5Z"/><path d="M174.52,49.45l-30.4,146.73A17.33,17.33,0,0,1,127.19,210a17.89,17.89,0,0,1-3.55-.36L59.55,196.36a5.31,5.31,0,0,1,1.07-10.51h55.93a7.32,7.32,0,0,0,7.32-7.32V21.26l9.32,1.93L161.07,29A17.37,17.37,0,0,1,174.52,49.45Z"/></g></g></svg>