<?xml version="1.0" standalone="no"?>
<svg xmlns:xlink="http://www.w3.org/1999/xlink" id="wave" style="transform:rotate(180deg); transition: 0.3s" viewBox="0 0 1440 490" version="1.1" xmlns="http://www.w3.org/2000/svg"><defs><linearGradient id="sw-gradient-0" x1="0" x2="0" y1="1" y2="0"><stop stop-color="rgba(19, 194, 194, 1)" offset="0%"/><stop stop-color="rgba(19, 194, 194, 1)" offset="100%"/></linearGradient></defs><path style="transform:translate(0, 0px); opacity:1" fill="url(#sw-gradient-0)" d="M0,294L120,261.3C240,229,480,163,720,171.5C960,180,1200,261,1440,253.2C1680,245,1920,147,2160,163.3C2400,180,2640,310,2880,343C3120,376,3360,310,3600,302.2C3840,294,4080,343,4320,375.7C4560,408,4800,425,5040,359.3C5280,294,5520,147,5760,138.8C6000,131,6240,261,6480,294C6720,327,6960,261,7200,212.3C7440,163,7680,131,7920,130.7C8160,131,8400,163,8640,147C8880,131,9120,65,9360,57.2C9600,49,9840,98,10080,106.2C10320,114,10560,82,10800,130.7C11040,180,11280,310,11520,318.5C11760,327,12000,212,12240,212.3C12480,212,12720,327,12960,318.5C13200,310,13440,180,13680,163.3C13920,147,14160,245,14400,302.2C14640,359,14880,376,15120,359.3C15360,343,15600,294,15840,269.5C16080,245,16320,245,16560,228.7C16800,212,17040,180,17160,163.3L17280,147L17280,490L17160,490C17040,490,16800,490,16560,490C16320,490,16080,490,15840,490C15600,490,15360,490,15120,490C14880,490,14640,490,14400,490C14160,490,13920,490,13680,490C13440,490,13200,490,12960,490C12720,490,12480,490,12240,490C12000,490,11760,490,11520,490C11280,490,11040,490,10800,490C10560,490,10320,490,10080,490C9840,490,9600,490,9360,490C9120,490,8880,490,8640,490C8400,490,8160,490,7920,490C7680,490,7440,490,7200,490C6960,490,6720,490,6480,490C6240,490,6000,490,5760,490C5520,490,5280,490,5040,490C4800,490,4560,490,4320,490C4080,490,3840,490,3600,490C3360,490,3120,490,2880,490C2640,490,2400,490,2160,490C1920,490,1680,490,1440,490C1200,490,960,490,720,490C480,490,240,490,120,490L0,490Z"/></svg>