<?xml version="1.0" standalone="no"?>
<svg xmlns:xlink="http://www.w3.org/1999/xlink" id="wave" style="transform:rotate(180deg); transition: 0.3s" viewBox="0 0 1440 490" version="1.1" xmlns="http://www.w3.org/2000/svg"><defs><linearGradient id="sw-gradient-0" x1="0" x2="0" y1="1" y2="0"><stop stop-color="rgba(132.54, 255, 238.33, 1)" offset="0%"/><stop stop-color="rgba(109.502, 227.889, 255, 1)" offset="100%"/></linearGradient></defs><path style="transform:translate(0, 0px); opacity:1" fill="url(#sw-gradient-0)" d="M0,294L120,261.3C240,229,480,163,720,163.3C960,163,1200,229,1440,261.3C1680,294,1920,294,2160,285.8C2400,278,2640,261,2880,269.5C3120,278,3360,310,3600,277.7C3840,245,4080,147,4320,89.8C4560,33,4800,16,5040,24.5C5280,33,5520,65,5760,106.2C6000,147,6240,196,6480,228.7C6720,261,6960,278,7200,269.5C7440,261,7680,229,7920,196C8160,163,8400,131,8640,130.7C8880,131,9120,163,9360,220.5C9600,278,9840,359,10080,334.8C10320,310,10560,180,10800,155.2C11040,131,11280,212,11520,228.7C11760,245,12000,196,12240,147C12480,98,12720,49,12960,81.7C13200,114,13440,229,13680,277.7C13920,327,14160,310,14400,253.2C14640,196,14880,98,15120,106.2C15360,114,15600,229,15840,269.5C16080,310,16320,278,16560,236.8C16800,196,17040,147,17160,122.5L17280,98L17280,490L17160,490C17040,490,16800,490,16560,490C16320,490,16080,490,15840,490C15600,490,15360,490,15120,490C14880,490,14640,490,14400,490C14160,490,13920,490,13680,490C13440,490,13200,490,12960,490C12720,490,12480,490,12240,490C12000,490,11760,490,11520,490C11280,490,11040,490,10800,490C10560,490,10320,490,10080,490C9840,490,9600,490,9360,490C9120,490,8880,490,8640,490C8400,490,8160,490,7920,490C7680,490,7440,490,7200,490C6960,490,6720,490,6480,490C6240,490,6000,490,5760,490C5520,490,5280,490,5040,490C4800,490,4560,490,4320,490C4080,490,3840,490,3600,490C3360,490,3120,490,2880,490C2640,490,2400,490,2160,490C1920,490,1680,490,1440,490C1200,490,960,490,720,490C480,490,240,490,120,490L0,490Z"/></svg>