<?xml version="1.0" standalone="no"?>
<svg xmlns:xlink="http://www.w3.org/1999/xlink" id="wave" style="transform:rotate(180deg); transition: 0.3s" viewBox="0 0 1440 490" version="1.1" xmlns="http://www.w3.org/2000/svg"><defs><linearGradient id="sw-gradient-0" x1="0" x2="0" y1="1" y2="0"><stop stop-color="rgba(41, 121, 255, 1)" offset="0%"/><stop stop-color="rgba(41, 121, 255, 1)" offset="100%"/></linearGradient></defs><path style="transform:translate(0, 0px); opacity:1" fill="url(#sw-gradient-0)" d="M0,147L120,122.5C240,98,480,49,720,49C960,49,1200,98,1440,155.2C1680,212,1920,278,2160,294C2400,310,2640,278,2880,220.5C3120,163,3360,82,3600,114.3C3840,147,4080,294,4320,334.8C4560,376,4800,310,5040,236.8C5280,163,5520,82,5760,106.2C6000,131,6240,261,6480,285.8C6720,310,6960,229,7200,196C7440,163,7680,180,7920,179.7C8160,180,8400,163,8640,204.2C8880,245,9120,343,9360,367.5C9600,392,9840,343,10080,310.3C10320,278,10560,261,10800,285.8C11040,310,11280,376,11520,351.2C11760,327,12000,212,12240,204.2C12480,196,12720,294,12960,285.8C13200,278,13440,163,13680,138.8C13920,114,14160,180,14400,228.7C14640,278,14880,310,15120,277.7C15360,245,15600,147,15840,147C16080,147,16320,245,16560,245C16800,245,17040,147,17160,98L17280,49L17280,490L17160,490C17040,490,16800,490,16560,490C16320,490,16080,490,15840,490C15600,490,15360,490,15120,490C14880,490,14640,490,14400,490C14160,490,13920,490,13680,490C13440,490,13200,490,12960,490C12720,490,12480,490,12240,490C12000,490,11760,490,11520,490C11280,490,11040,490,10800,490C10560,490,10320,490,10080,490C9840,490,9600,490,9360,490C9120,490,8880,490,8640,490C8400,490,8160,490,7920,490C7680,490,7440,490,7200,490C6960,490,6720,490,6480,490C6240,490,6000,490,5760,490C5520,490,5280,490,5040,490C4800,490,4560,490,4320,490C4080,490,3840,490,3600,490C3360,490,3120,490,2880,490C2640,490,2400,490,2160,490C1920,490,1680,490,1440,490C1200,490,960,490,720,490C480,490,240,490,120,490L0,490Z"/></svg>