<?xml version="1.0" standalone="no"?>
<svg xmlns:xlink="http://www.w3.org/1999/xlink" id="wave" style="transform:rotate(0deg); transition: 0.3s" viewBox="0 0 1440 490" version="1.1" xmlns="http://www.w3.org/2000/svg"><defs><linearGradient id="sw-gradient-0" x1="0" x2="0" y1="1" y2="0"><stop stop-color="rgba(0, 191, 165, 1)" offset="0%"/><stop stop-color="rgba(0, 191, 165, 1)" offset="100%"/></linearGradient></defs><path style="transform:translate(0, 0px); opacity:1" fill="url(#sw-gradient-0)" d="M0,294L120,269.5C240,245,480,196,720,196C960,196,1200,245,1440,294C1680,343,1920,392,2160,367.5C2400,343,2640,245,2880,196C3120,147,3360,147,3600,163.3C3840,180,4080,212,4320,204.2C4560,196,4800,147,5040,179.7C5280,212,5520,327,5760,326.7C6000,327,6240,212,6480,138.8C6720,65,6960,33,7200,73.5C7440,114,7680,229,7920,269.5C8160,310,8400,278,8640,294C8880,310,9120,376,9360,359.3C9600,343,9840,245,10080,228.7C10320,212,10560,278,10800,277.7C11040,278,11280,212,11520,220.5C11760,229,12000,310,12240,359.3C12480,408,12720,425,12960,383.8C13200,343,13440,245,13680,171.5C13920,98,14160,49,14400,89.8C14640,131,14880,261,15120,326.7C15360,392,15600,392,15840,392C16080,392,16320,392,16560,351.2C16800,310,17040,229,17160,187.8L17280,147L17280,490L17160,490C17040,490,16800,490,16560,490C16320,490,16080,490,15840,490C15600,490,15360,490,15120,490C14880,490,14640,490,14400,490C14160,490,13920,490,13680,490C13440,490,13200,490,12960,490C12720,490,12480,490,12240,490C12000,490,11760,490,11520,490C11280,490,11040,490,10800,490C10560,490,10320,490,10080,490C9840,490,9600,490,9360,490C9120,490,8880,490,8640,490C8400,490,8160,490,7920,490C7680,490,7440,490,7200,490C6960,490,6720,490,6480,490C6240,490,6000,490,5760,490C5520,490,5280,490,5040,490C4800,490,4560,490,4320,490C4080,490,3840,490,3600,490C3360,490,3120,490,2880,490C2640,490,2400,490,2160,490C1920,490,1680,490,1440,490C1200,490,960,490,720,490C480,490,240,490,120,490L0,490Z"/></svg>