<?xml version="1.0" standalone="no"?>
<svg xmlns:xlink="http://www.w3.org/1999/xlink" id="wave" style="transform:rotate(0deg); transition: 0.3s" viewBox="0 0 1440 490" version="1.1" xmlns="http://www.w3.org/2000/svg"><defs><linearGradient id="sw-gradient-0" x1="0" x2="0" y1="1" y2="0"><stop stop-color="rgba(54, 207, 201, 1)" offset="0%"/><stop stop-color="rgba(181, 245, 236, 1)" offset="100%"/></linearGradient></defs><path style="transform:translate(0, 0px); opacity:1" fill="url(#sw-gradient-0)" d="M0,343L120,285.8C240,229,480,114,720,122.5C960,131,1200,261,1440,334.8C1680,408,1920,425,2160,375.7C2400,327,2640,212,2880,163.3C3120,114,3360,131,3600,130.7C3840,131,4080,114,4320,147C4560,180,4800,261,5040,318.5C5280,376,5520,408,5760,416.5C6000,425,6240,408,6480,383.8C6720,359,6960,327,7200,294C7440,261,7680,229,7920,196C8160,163,8400,131,8640,155.2C8880,180,9120,261,9360,302.2C9600,343,9840,343,10080,326.7C10320,310,10560,278,10800,285.8C11040,294,11280,343,11520,318.5C11760,294,12000,196,12240,163.3C12480,131,12720,163,12960,220.5C13200,278,13440,359,13680,367.5C13920,376,14160,310,14400,245C14640,180,14880,114,15120,122.5C15360,131,15600,212,15840,253.2C16080,294,16320,294,16560,285.8C16800,278,17040,261,17160,253.2L17280,245L17280,490L17160,490C17040,490,16800,490,16560,490C16320,490,16080,490,15840,490C15600,490,15360,490,15120,490C14880,490,14640,490,14400,490C14160,490,13920,490,13680,490C13440,490,13200,490,12960,490C12720,490,12480,490,12240,490C12000,490,11760,490,11520,490C11280,490,11040,490,10800,490C10560,490,10320,490,10080,490C9840,490,9600,490,9360,490C9120,490,8880,490,8640,490C8400,490,8160,490,7920,490C7680,490,7440,490,7200,490C6960,490,6720,490,6480,490C6240,490,6000,490,5760,490C5520,490,5280,490,5040,490C4800,490,4560,490,4320,490C4080,490,3840,490,3600,490C3360,490,3120,490,2880,490C2640,490,2400,490,2160,490C1920,490,1680,490,1440,490C1200,490,960,490,720,490C480,490,240,490,120,490L0,490Z"/></svg>