<svg xmlns="http://www.w3.org/2000/svg" viewBox="0 0 214 186.5"><title>Asset 18@4</title><g id="Layer_2" data-name="Layer 2"><g id="Layer_1-2" data-name="Layer 1"><path d="M186.5,27.5H109.75l-29.27-22A27.74,27.74,0,0,0,64,0H27.5A27.54,27.54,0,0,0,0,27.5V159a27.53,27.53,0,0,0,27.5,27.5h159A27.53,27.53,0,0,0,214,159V55A27.54,27.54,0,0,0,186.5,27.5Zm-18.3,16V95.58l-14.39-9.73a8,8,0,0,0-8.85,0l-15,9.93V43.5ZM199,159a12.51,12.51,0,0,1-12.5,12.5H27.5A12.51,12.51,0,0,1,15,159V27.5A12.52,12.52,0,0,1,27.5,15H64a12.67,12.67,0,0,1,7.51,2.51L102.21,40.6a9.53,9.53,0,0,0,5.71,1.9H115c0,.16,0,.32,0,.49v65a8.42,8.42,0,0,0,13.09,7l21.24-14.08,20.72,14a8.44,8.44,0,0,0,13.16-7V43c0-.17,0-.33,0-.49h3.31A12.52,12.52,0,0,1,199,55Z"/></g></g></svg>