<svg xmlns="http://www.w3.org/2000/svg" viewBox="0 0 214 214"><title>Asset 17@4</title><g id="Layer_2" data-name="Layer 2"><g id="Layer_1-2" data-name="Layer 1"><path d="M213.37,68.32a8.47,8.47,0,0,0-.64-2.27L188,10.4A17.5,17.5,0,0,0,172,0H42A17.5,17.5,0,0,0,26,10.4L1.27,66a8.47,8.47,0,0,0-.64,2.27A8.24,8.24,0,0,0,0,71.5v115A27.53,27.53,0,0,0,27.5,214h159A27.53,27.53,0,0,0,214,186.5V71.5A8.24,8.24,0,0,0,213.37,68.32ZM174.29,16.49,195,63H114V15h58A2.52,2.52,0,0,1,174.29,16.49Zm-134.58,0A2.52,2.52,0,0,1,42,15H99V63H19ZM199,186.5A12.51,12.51,0,0,1,186.5,199H27.5A12.51,12.51,0,0,1,15,186.5V78H199Z"/></g></g></svg>