<svg xmlns="http://www.w3.org/2000/svg" viewBox="0 0 174.27 209"><title>Asset 14@4</title><g id="Layer_2" data-name="Layer 2"><g id="Layer_1-2" data-name="Layer 1"><path d="M160.48,28.32l-27.6-5.72A25,25,0,0,0,108,0H25A25,25,0,0,0,0,25V169.51a25,25,0,0,0,25,25H57.15a5.25,5.25,0,0,0,2,.88l64,13.25a17.79,17.79,0,0,0,3.54.36,17.29,17.29,0,0,0,16.91-13.8L173.91,48.78A17.34,17.34,0,0,0,160.48,28.32ZM10,169.51V25A15,15,0,0,1,25,10h83a15,15,0,0,1,15,15V169.51a15,15,0,0,1-15,15H25A15,15,0,0,1,10,169.51Z" /><path d="M95,114.4H38.76c-6.43,0-6.45,10,0,10H95c6.43,0,6.45-10,0-10Z"/><path d="M95,92.15H38.76c-6.43,0-6.45,10,0,10H95c6.43,0,6.45-10,0-10Z"/></g></g></svg>