<?xml version="1.0" standalone="no"?>
<svg xmlns:xlink="http://www.w3.org/1999/xlink" id="wave" style="transform:rotate(180deg); transition: 0.3s" viewBox="0 0 1440 490" version="1.1" xmlns="http://www.w3.org/2000/svg"><defs><linearGradient id="sw-gradient-0" x1="0" x2="0" y1="1" y2="0"><stop stop-color="rgba(0, 191, 165, 1)" offset="0%"/><stop stop-color="rgba(0, 191, 165, 1)" offset="100%"/></linearGradient></defs><path style="transform:translate(0, 0px); opacity:1" fill="url(#sw-gradient-0)" d="M0,294L60,261.3C120,229,240,163,360,138.8C480,114,600,131,720,171.5C840,212,960,278,1080,294C1200,310,1320,278,1440,285.8C1560,294,1680,343,1800,334.8C1920,327,2040,261,2160,196C2280,131,2400,65,2520,98C2640,131,2760,261,2880,318.5C3000,376,3120,359,3240,351.2C3360,343,3480,343,3600,318.5C3720,294,3840,245,3960,253.2C4080,261,4200,327,4320,302.2C4440,278,4560,163,4680,122.5C4800,82,4920,114,5040,155.2C5160,196,5280,245,5400,253.2C5520,261,5640,229,5760,196C5880,163,6000,131,6120,98C6240,65,6360,33,6480,65.3C6600,98,6720,196,6840,204.2C6960,212,7080,131,7200,138.8C7320,147,7440,245,7560,285.8C7680,327,7800,310,7920,261.3C8040,212,8160,131,8280,106.2C8400,82,8520,114,8580,130.7L8640,147L8640,490L8580,490C8520,490,8400,490,8280,490C8160,490,8040,490,7920,490C7800,490,7680,490,7560,490C7440,490,7320,490,7200,490C7080,490,6960,490,6840,490C6720,490,6600,490,6480,490C6360,490,6240,490,6120,490C6000,490,5880,490,5760,490C5640,490,5520,490,5400,490C5280,490,5160,490,5040,490C4920,490,4800,490,4680,490C4560,490,4440,490,4320,490C4200,490,4080,490,3960,490C3840,490,3720,490,3600,490C3480,490,3360,490,3240,490C3120,490,3000,490,2880,490C2760,490,2640,490,2520,490C2400,490,2280,490,2160,490C2040,490,1920,490,1800,490C1680,490,1560,490,1440,490C1320,490,1200,490,1080,490C960,490,840,490,720,490C600,490,480,490,360,490C240,490,120,490,60,490L0,490Z"/></svg>